<?xml version="1.0" encoding="UTF-8"?> <!-- Generator: Adobe Illustrator 24.2.3, SVG Export Plug-In . SVG Version: 6.00 Build 0) --> <svg xmlns="http://www.w3.org/2000/svg" xmlns:xlink="http://www.w3.org/1999/xlink" version="1.1" id="Layer_1" x="0px" y="0px" viewBox="0 0 229.8 155.8" style="enable-background:new 0 0 229.8 155.8;" xml:space="preserve"> <style type="text/css"> .st0{fill:#2C509C;} .st1{fill:#EE8D1D;} .st2{fill:#EF8C1F;} </style> <ellipse class="st0" cx="114.9" cy="77.9" rx="114.9" ry="77.9"></ellipse> <path class="st1" d="M128.9,127.3c0,0,12.2-6.3,12.2-16.2c0,0-22.6-3.1-25.5,12.5c0,0-8.7-6.5-8.7-12.6s3-7.2,9.3-6.1 c0,0-0.7-4.2-4.6-6.1c0,0,23.1-12.1,23.1-31.9c0-10.4-16.7-14.5-22-14.5c-5.4,0-20.7,0.2-35,23.4c0,0-3.8-3-5.8-6.4 c0,0-0.7,5.9,1.1,11.4c0,0-3.5-1.7-5.8-4.1c0,0-0.1,6.3,4.3,9.8c0,0-3.7,0.3-7.5-0.2c0,0,2.1,5.3,7.7,5.7c0,0-0.1,1.7-0.1,5.6 s3.9,36.4,35.4,36.4c4.8,0,7.4-1.9,7.4-1.9s4,9.5,12.8,9.5c11,0,9.9,5.3,9.9,5.3s2.3-3.7,2.3-8.1S136.9,127.3,128.9,127.3z M112,62.2c2.1,0,3.8,1.7,3.8,3.8s-1.7,3.8-3.8,3.8s-3.8-1.7-3.8-3.8S109.9,62.2,112,62.2z"></path> <path class="st1" d="M139.8,37.4c0,0-12.2,6.3-12.2,16.2c0,0,22.6,3.1,25.5-12.5c0,0,8.7,6.5,8.7,12.6s-3,7.2-9.3,6.1 c0,0,0.7,4.2,4.6,6.1c0,0-23.1,12.1-23.1,31.9c0,10.4,16.7,14.5,22,14.5c5.4,0,20.7-0.2,35-23.4c0,0,3.8,3,5.8,6.4 c0,0,0.7-5.9-1.1-11.4c0,0,3.5,1.7,5.8,4.1c0,0,0.1-6.3-4.3-9.8c0,0,3.7-0.3,7.5,0.2c0,0-2.1-5.3-7.7-5.7c0,0,0.1-1.7,0.1-5.6 s-3.9-36.4-35.4-36.4c-4.8,0-7.4,1.9-7.4,1.9s-4-9.5-12.8-9.5c-11,0-9.9-5.3-9.9-5.3s-2.3,3.7-2.3,8.1S131.8,37.4,139.8,37.4z M156.7,102.5c-2.1,0-3.8-1.7-3.8-3.8s1.7-3.8,3.8-3.8s3.8,1.7,3.8,3.8S158.8,102.5,156.7,102.5z"></path> <g> <path class="st2" d="M35,41.9c0.6,0.4,1.5,0.9,2.5,0.9c1.3,0,2.1-0.8,2.1-2.2V28.2h5.9v12.4c0,5-3,7.2-7.5,7.2 c-1.9,0-3.9-0.4-5.4-1.6L35,41.9z"></path> <path class="st2" d="M46.5,41.9c0.6,0.4,1.5,0.9,2.5,0.9c1.3,0,2.1-0.8,2.1-2.2V28.2H57v12.4c0,5-3,7.2-7.5,7.2 c-1.9,0-3.9-0.4-5.4-1.6L46.5,41.9z"></path> <path class="st2" d="M64,28.2h15.4v4.9h-9.5v2.3h8.1v4.9h-8.1v7.3H64V28.2z"></path> <path class="st2" d="M79.4,28.2h5.8v19.3h-5.8V28.2z"></path> <path class="st2" d="M88.2,40.5c1.4,1.4,3.6,2.5,6.2,2.5c1.1,0,2.1-0.4,2.1-1.1c0-0.8-0.8-1.1-2.7-1.5c-3.2-0.6-8.1-1.3-8.1-6.2 c0-3.3,2.7-6.3,8-6.3c3.2,0,6,0.9,8.2,2.7l-3.1,4.1c-1.7-1.3-3.9-1.9-5.4-1.9c-1.4,0-1.8,0.5-1.8,1c0,0.8,0.8,1,2.8,1.4 c3.2,0.6,7.9,1.5,7.9,5.9c0,4.3-3.2,6.7-8.3,6.7c-4.1,0-6.9-1.2-9-3.1L88.2,40.5z"></path> <path class="st2" d="M109.6,40.7l-1.1,1.4v5.4h-5.8V28.2h5.8v7.2l5.1-7.2h7.2l-7.3,9l7.6,10.3h-7.1L109.6,40.7z"></path> </g> </svg> 